<?xml version="1.0" standalone="no"?>
<!DOCTYPE svg PUBLIC "-//W3C//DTD SVG 20010904//EN"
 "http://www.w3.org/TR/2001/REC-SVG-20010904/DTD/svg10.dtd">
<svg version="1.0" xmlns="http://www.w3.org/2000/svg"
 width="512.000000pt" height="492.000000pt" viewBox="0 0 512.000000 492.000000"
 preserveAspectRatio="xMidYMid meet">

<g transform="translate(0.000000,492.000000) scale(0.100000,-0.100000)"
fill="#000000" stroke="none">
<path d="M3880 3673 c-669 -670 -1366 -1370 -1550 -1556 l-335 -339 850 628
c524 388 866 633 891 642 32 10 51 11 81 3 64 -17 89 -44 121 -129 137 -360
116 -786 -58 -1133 -129 -255 -386 -506 -643 -628 -180 -85 -334 -121 -542
-128 -181 -6 -305 10 -482 63 l-122 36 -286 -133 -286 -132 68 -45 c94 -62
308 -164 429 -206 641 -220 1327 -91 1851 348 391 326 630 794 673 1317 16
189 1 363 -55 629 -76 366 -81 630 -15 885 67 257 190 483 498 913 72 100 130
182 129 182 -1 0 -549 -548 -1217 -1217z"/>
<path d="M2535 4343 c-260 -16 -536 -89 -759 -200 -510 -255 -887 -738 -1009
-1294 -41 -183 -50 -291 -44 -498 8 -246 42 -413 127 -633 53 -135 70 -219 70
-341 0 -166 -47 -310 -155 -479 -90 -138 -141 -199 -410 -488 -155 -166 -249
-271 -324 -364 -14 -17 -14 -18 -1 -11 15 9 1495 1329 1559 1391 l34 33 -57
62 c-87 94 -153 192 -217 324 -97 199 -136 394 -126 619 15 343 150 664 383
915 374 402 975 552 1485 372 l81 -29 102 48 c55 26 124 58 151 70 28 13 91
42 140 65 50 23 109 50 133 60 23 10 42 22 42 25 0 13 -149 103 -255 155 -225
110 -469 175 -725 195 -74 5 -144 9 -155 8 -11 -1 -42 -3 -70 -5z"/>
</g>
</svg>
