<?xml version="1.0" standalone="no"?>
<!DOCTYPE svg PUBLIC "-//W3C//DTD SVG 20010904//EN"
 "http://www.w3.org/TR/2001/REC-SVG-20010904/DTD/svg10.dtd">
<svg version="1.0" xmlns="http://www.w3.org/2000/svg"
 width="300.000000pt" height="300.000000pt" viewBox="0 0 300.000000 300.000000"
 preserveAspectRatio="xMidYMid meet">

<g transform="translate(0.000000,300.000000) scale(0.100000,-0.100000)"
fill="#000000" stroke="none">
<path d="M560 2557 c0 -404 -1 -435 -17 -442 -10 -3 -90 -5 -178 -4 l-160 2 0
-649 0 -649 175 -2 175 -2 5 -403 5 -403 50 45 c91 82 417 382 606 557 103 95
192 173 198 173 8 0 11 -110 11 -380 l0 -380 70 0 70 0 0 368 c0 203 3 372 6
375 4 4 30 -14 58 -40 28 -25 197 -176 376 -336 179 -159 344 -307 367 -328
23 -22 47 -39 52 -39 7 0 12 128 13 396 l3 395 175 2 175 2 0 649 0 650 -115
-3 c-64 -1 -128 1 -143 4 l-27 7 0 430 c0 267 -4 428 -9 426 -6 -1 -101 -80
-213 -175 -582 -492 -703 -591 -710 -587 -4 3 -8 176 -8 385 l0 379 -70 0 -70
0 0 -380 c0 -267 -3 -380 -11 -380 -6 0 -124 105 -262 233 -412 380 -567 521
-582 530 -13 7 -15 -47 -15 -426z m172 90 c7 -7 138 -127 291 -266 200 -182
275 -256 265 -262 -18 -12 -549 -11 -568 1 -12 8 -16 47 -18 232 -3 198 2 308
13 308 2 0 10 -6 17 -13z m1638 -252 c0 -251 -1 -265 -19 -275 -22 -11 -595
-13 -624 -1 -15 5 46 61 298 274 174 147 323 267 331 267 12 0 14 -43 14 -265z
m-1066 -432 c4 -4 -162 -176 -369 -383 l-375 -376 0 -122 0 -122 -105 0 -105
0 0 498 c0 274 3 502 7 505 9 9 938 9 947 0z m1344 -500 l2 -503 -105 0 -105
0 0 122 0 122 -375 376 c-207 207 -372 379 -369 383 4 4 219 6 478 5 l471 -3
3 -502z m-1218 -42 l0 -429 -357 -327 c-354 -323 -358 -326 -366 -298 -4 15
-5 197 -2 403 l6 375 352 353 c194 193 355 352 359 352 5 0 8 -193 8 -429z
m507 77 l353 -353 0 -403 c0 -252 -4 -402 -10 -400 -9 3 -183 157 -522 461
l-188 168 0 440 c0 241 3 439 7 439 5 0 167 -159 360 -352z"/>
</g>
</svg>
