<svg xmlns="http://www.w3.org/2000/svg" xmlns:xlink="http://www.w3.org/1999/xlink" width="160" zoomAndPan="magnify" viewBox="0 0 120 60" height="80" preserveAspectRatio="xMidYMid meet" version="1.0"><defs><g/><clipPath id="a02d1554cf"><path d="M 3 14 L 44 14 L 44 46.984375 L 3 46.984375 Z M 3 14 " clip-rule="nonzero"/></clipPath></defs><rect x="-12" width="144" fill="#ffffff" y="-6" height="72" fill-opacity="1"/><rect x="-12" width="144" fill="#ffffff" y="-6" height="72" fill-opacity="1"/><g clip-path="url(#a02d1554cf)"><path fill="#3eb7bb" d="M 12.75 33.851562 L 13.015625 33.851562 L 14.675781 36.730469 L 16.621094 36.730469 L 16.621094 37.335938 L 11.660156 37.335938 L 11.660156 38.550781 L 15.726562 38.550781 L 17.535156 41.683594 L 19.1875 41.683594 L 19.1875 42.292969 L 11.636719 42.292969 L 11.636719 42.902344 L 11.640625 42.902344 L 11.640625 43.507812 L 18.582031 43.507812 L 18.597656 43.527344 C 19.359375 44.855469 20.679688 45.617188 22.207031 45.617188 L 25.875 45.617188 C 25.957031 45.617188 26.039062 45.613281 26.121094 45.609375 C 27.023438 45.558594 27.84375 45.246094 28.503906 44.699219 C 28.886719 44.382812 29.222656 43.988281 29.488281 43.527344 L 29.734375 43.097656 L 29.75 43.074219 L 32.628906 38.089844 L 33.335938 36.867188 L 39.328125 36.867188 L 36.207031 42.269531 C 35.910156 42.785156 35.464844 43.0625 34.882812 43.09375 C 34.472656 42.320312 33.65625 41.792969 32.722656 41.792969 C 31.375 41.792969 30.285156 42.882812 30.285156 44.230469 C 30.285156 45.578125 31.375 46.671875 32.722656 46.671875 C 33.558594 46.671875 34.292969 46.25 34.734375 45.613281 L 34.773438 45.613281 C 36.308594 45.613281 37.621094 44.851562 38.386719 43.523438 L 41.527344 38.085938 L 42.234375 36.863281 L 43.644531 34.417969 C 43.386719 34.375 43.117188 34.347656 42.847656 34.347656 L 31.878906 34.347656 L 30.429688 36.867188 L 28.296875 40.558594 L 27.308594 42.269531 C 27.277344 42.332031 27.238281 42.382812 27.195312 42.4375 C 26.882812 42.871094 26.4375 43.09375 25.875 43.09375 L 22.207031 43.09375 C 21.574219 43.09375 21.09375 42.8125 20.773438 42.269531 L 14.492188 31.390625 C 14.171875 30.839844 14.171875 30.28125 14.492188 29.730469 L 20.265625 19.734375 L 20.753906 18.890625 C 22.035156 18.816406 23.050781 17.753906 23.050781 16.457031 C 23.050781 15.109375 21.960938 14.015625 20.613281 14.015625 C 19.265625 14.015625 18.175781 15.109375 18.175781 16.457031 C 18.175781 16.917969 18.300781 17.351562 18.53125 17.71875 L 18.355469 18.023438 L 17.699219 19.164062 L 19.101562 19.164062 L 19.101562 19.769531 L 12.5625 19.769531 L 12.5625 20.984375 L 16.648438 20.984375 L 15.8125 22.429688 L 17.710938 22.429688 L 17.710938 23.035156 L 9.714844 23.035156 L 9.714844 24.25 L 14.761719 24.25 L 13.042969 27.21875 L 14.976562 27.21875 L 14.976562 27.828125 L 9.710938 27.828125 L 9.710938 29.042969 L 12.039062 29.042969 C 11.644531 30.019531 11.636719 31.070312 12.019531 32.050781 L 13.441406 32.050781 L 13.441406 32.660156 L 3.796875 32.660156 L 3.796875 33.875 L 12.746094 33.875 Z M 12.75 33.851562 " fill-opacity="1" fill-rule="evenodd"/></g><path fill="#3eb7bb" d="M 29.03125 15.5 L 26.125 15.5 L 24.675781 18.019531 L 23.585938 19.910156 L 21.785156 23.027344 L 20.382812 25.460938 L 18.644531 28.46875 C 18.585938 28.566406 18.535156 28.664062 18.488281 28.765625 C 17.933594 29.917969 17.933594 31.1875 18.488281 32.339844 C 18.539062 32.4375 18.585938 32.539062 18.644531 32.636719 L 20.382812 35.640625 L 21.785156 38.078125 L 21.953125 38.363281 C 21.746094 38.722656 21.628906 39.136719 21.628906 39.578125 C 21.628906 40.925781 22.722656 42.015625 24.066406 42.015625 C 25.414062 42.015625 26.507812 40.925781 26.507812 39.578125 C 26.507812 38.257812 25.457031 37.183594 24.152344 37.140625 L 20.824219 31.378906 C 20.503906 30.828125 20.503906 30.269531 20.824219 29.71875 L 26.117188 20.550781 L 27.207031 18.667969 L 27.585938 18.011719 L 34.777344 18.011719 C 35.410156 18.011719 35.894531 18.289062 36.210938 18.835938 L 39.523438 24.570312 L 33.535156 24.570312 L 32.636719 23.019531 L 32.160156 22.195312 C 32.292969 21.894531 32.367188 21.566406 32.367188 21.214844 C 32.367188 19.867188 31.277344 18.773438 29.929688 18.773438 C 28.582031 18.773438 27.492188 19.867188 27.492188 21.214844 C 27.492188 22.5625 28.582031 23.652344 29.929688 23.652344 C 29.988281 23.652344 30.039062 23.652344 30.09375 23.648438 L 30.628906 24.570312 L 32.078125 27.085938 L 43.878906 27.085938 L 42.429688 24.570312 L 41.53125 23.019531 L 38.390625 17.578125 C 37.625 16.253906 36.3125 15.492188 34.777344 15.492188 L 29.035156 15.492188 Z M 29.03125 15.5 " fill-opacity="1" fill-rule="evenodd"/><path fill="#d9d9d9" d="M 5.636719 20.855469 L 10.191406 20.855469 L 10.191406 22.066406 L 5.636719 22.066406 Z M 5.636719 20.855469 " fill-opacity="1" fill-rule="evenodd"/><path fill="#d9d9d9" d="M 3.980469 25.992188 L 8.867188 25.992188 L 8.867188 27.203125 L 3.980469 27.203125 Z M 3.980469 25.992188 " fill-opacity="1" fill-rule="evenodd"/><path fill="#d9d9d9" d="M 6.707031 35.328125 L 10.886719 35.328125 L 10.886719 36.542969 L 6.707031 36.542969 Z M 6.707031 35.328125 " fill-opacity="1" fill-rule="evenodd"/><path fill="#d9d9d9" d="M 6.761719 40.699219 L 12.097656 40.699219 L 12.097656 41.914062 L 6.761719 41.914062 Z M 6.761719 40.699219 " fill-opacity="1" fill-rule="evenodd"/><path fill="#d9d9d9" d="M 0 34.417969 L 4.132812 34.417969 L 4.132812 35.628906 L 0 35.628906 Z M 0 34.417969 " fill-opacity="1" fill-rule="evenodd"/><g fill="#3eb7bb" fill-opacity="1"><g transform="translate(46.726045, 43.765399)"><g><path d="M 33.40625 -27.453125 L 40.59375 -27.453125 L 32.9375 0 L 25.265625 0 L 20.453125 -17.40625 L 15.6875 0 L 8.015625 0 L 0.234375 -27.453125 L 7.390625 -27.453125 L 12.15625 -7.703125 L 17.046875 -27.453125 L 24.640625 -27.453125 L 29.328125 -8.015625 Z M 33.40625 -27.453125 "/></g></g></g><g fill="#3eb7bb" fill-opacity="1"><g transform="translate(91.234981, 43.765399)"><g><path d="M 20.8125 -27.53125 L 27.5 -27.53125 L 27.5 0 L 20.8125 0 L 9.625 -17.328125 L 9.625 0 L 2.9375 0 L 2.9375 -27.53125 L 9.625 -27.53125 L 20.8125 -10.203125 Z M 20.8125 -27.53125 "/></g></g></g></svg>