<svg xmlns="http://www.w3.org/2000/svg" width="197" height="46" viewBox="0 0 197 46" fill="none">
  <path d="M36.897 36.1306C36.882 36.1656 36.862 36.2005 36.847 36.2305V36.1306H36.897Z" fill="#04477B"/>
  <path d="M37.3496 19.3515V31.2684C37.3496 31.4461 37.2684 31.6085 37.1262 31.7151L28.5641 38.0846L19.195 45.048C18.9971 45.1952 18.7281 45.1952 18.5301 45.048L0.223316 31.4359C0.0812057 31.3293 0 31.1669 0 30.9893V24.0716C0 23.762 0.248693 23.5133 0.558289 23.5133H2.41079C2.72039 23.5133 2.96908 23.762 2.96908 24.0716V29.4971C2.96908 29.6748 3.05029 29.8423 3.1924 29.9438L18.5301 41.3481C18.7281 41.4953 18.9971 41.4953 19.195 41.3481L34.1521 30.228C34.2942 30.1214 34.3754 29.959 34.3754 29.7813V21.5694C34.3754 21.2598 34.1267 21.0111 33.8171 21.0111H27.4881C27.1481 21.0111 26.8689 20.732 26.874 20.3919C26.9045 20.1077 26.9197 19.8184 26.9197 19.5291C26.9197 19.2398 26.9045 18.9455 26.874 18.6612V18.6257C26.737 17.3772 26.3056 16.1591 25.6204 15.0933C25.2093 14.4436 24.7068 13.8599 24.1333 13.3524C22.8442 12.2155 21.2708 11.5151 19.5706 11.3324L19.464 11.3172C18.9971 11.2512 18.5251 11.2461 18.0581 11.302L17.779 11.3324C16.0838 11.5202 14.5104 12.2155 13.2264 13.3524C12.6529 13.8599 12.1504 14.4436 11.7342 15.0933L11.5667 15.347H9.13057C8.71439 15.347 8.44539 14.9105 8.62811 14.54C8.97323 13.8498 9.38941 13.1951 9.8665 12.586C11.4652 10.566 13.7187 9.13987 16.2158 8.58158C16.6218 8.49022 17.0278 8.42424 17.4186 8.37856C17.4998 8.36841 17.5963 8.35826 17.6876 8.35319C17.7739 8.34304 17.8551 8.33796 17.9363 8.33288C18.388 8.30243 18.9463 8.29736 19.4183 8.33288C19.4894 8.33288 19.5706 8.34303 19.6569 8.34811C19.7482 8.35319 19.8396 8.36334 19.936 8.37349C20.3167 8.41409 20.7227 8.48514 21.1287 8.5765C23.6258 9.13479 25.8792 10.561 27.478 12.581C27.9551 13.19 28.3763 13.8447 28.7164 14.535C29.1935 15.4942 29.5284 16.5093 29.7162 17.565C29.7619 17.834 29.9903 18.037 30.2644 18.037H36.03C36.7557 18.037 37.3496 18.6257 37.3496 19.3566V19.3515Z" fill="#04477B"/>
  <path d="M37.3496 10.9213V12.916C37.3496 13.2255 37.0958 13.4793 36.7862 13.4793H34.888C34.6089 13.4793 34.3805 13.2509 34.3805 12.9718V10.9213C34.3805 10.3529 34.3145 9.79461 34.1775 9.24647C34.0353 8.64757 33.812 8.06898 33.5126 7.52085C32.264 5.23186 29.8685 3.80568 27.2699 3.80568H10.0797C7.476 3.80568 5.08551 5.23186 3.8319 7.52085C3.53245 8.06391 3.31421 8.6425 3.16702 9.24139C3.03506 9.78953 2.96401 10.3478 2.96401 10.9163V17.5193C2.96401 17.7984 3.1924 18.0268 3.47154 18.0268H9.91217C10.2421 18.0268 10.5009 18.3111 10.4654 18.641C10.4349 18.9353 10.4197 19.2246 10.4197 19.5139C10.4197 19.8032 10.4349 20.0925 10.4654 20.3818V20.4123C10.6024 21.6151 10.9831 22.7418 11.6073 23.7721C11.9981 24.4167 12.4702 25.0004 13.0183 25.513C14.348 26.7666 15.9975 27.5228 17.7942 27.7157C18.3677 27.7766 18.9717 27.7766 19.53 27.7157C21.3317 27.5279 22.9863 26.7666 24.311 25.5181C24.8591 25.0055 25.3311 24.4218 25.7219 23.7772L25.8843 23.5082H28.3814C28.7519 23.5082 29.0006 23.8939 28.8433 24.234L28.8077 24.3051C28.488 24.9902 28.087 25.6449 27.6252 26.2591C26.1939 28.1623 24.1486 29.5834 21.8799 30.2635C21.1592 30.4818 20.4029 30.6239 19.6416 30.6949C19.327 30.7203 18.9971 30.7355 18.6672 30.7355C18.3373 30.7355 18.0023 30.7203 17.6876 30.6949C16.9263 30.6289 16.1752 30.4868 15.4494 30.2635C13.1807 29.5834 11.1455 28.1623 9.70916 26.2591C9.2473 25.6449 8.85142 24.9852 8.5266 24.3051C8.09012 23.3915 7.7856 22.4272 7.61304 21.4324C7.57243 21.1888 7.36434 21.001 7.11565 21.001H1.19271C0.532912 21.001 0 20.4681 0 19.8083V10.9213C0 10.2869 0.0609043 9.64235 0.177638 9.013C0.309597 8.3329 0.507536 7.67311 0.77653 7.04376C1.08105 6.30276 1.482 5.59728 1.96416 4.94764C3.16702 3.31845 4.83174 2.08006 6.81621 1.36951C7.84143 0.999011 8.92755 0.841675 10.0188 0.841675H27.3359C28.4372 0.841675 29.5386 0.999011 30.5689 1.37459C32.5483 2.09529 34.2028 3.34383 35.3803 4.94764C35.8574 5.59728 36.2584 6.30276 36.573 7.04376C36.8369 7.67311 37.0349 8.33798 37.1668 9.00793C37.2836 9.63727 37.3445 10.2818 37.3445 10.9163L37.3496 10.9213Z" fill="#04477B"/>
  <path d="M21.1947 17.6816C23.0371 20.7015 19.8599 23.8787 16.8401 22.0363C16.5609 21.8688 16.3224 21.6303 16.1549 21.3511C14.3126 18.3313 17.4897 15.1541 20.5096 16.9965C20.7887 17.164 21.0273 17.4025 21.1947 17.6816Z" fill="#5CEAD2"/>
  <path d="M56.4684 15.4689C55.4635 15.1492 54.5753 14.9868 53.8089 14.9868C52.9563 14.9868 52.2762 15.1492 51.7788 15.4689C51.2814 15.7887 51.0327 16.2353 51.0327 16.8038C51.0327 17.3214 51.2053 17.7528 51.5555 18.098C51.9057 18.4431 52.3421 18.7324 52.8649 18.9557C53.3927 19.179 54.1084 19.4226 55.0169 19.6916C56.2806 20.0672 57.3211 20.4377 58.1331 20.8133C58.9452 21.1889 59.6354 21.7421 60.2039 22.4729C60.7723 23.2038 61.0616 24.1681 61.0616 25.3608C61.0616 26.5535 60.752 27.4975 60.1379 28.34C59.5238 29.1876 58.6762 29.8322 57.6002 30.2788C56.5242 30.7255 55.2858 30.9488 53.9003 30.9488C52.4386 30.9488 51.0124 30.6747 49.6217 30.1316C48.2311 29.5886 47.0181 28.8628 45.9878 27.9543L47.485 24.9091C48.429 25.7821 49.4898 26.4672 50.6673 26.9697C51.8448 27.4671 52.941 27.7158 53.9561 27.7158C54.9712 27.7158 55.7376 27.5229 56.306 27.1423C56.8744 26.7616 57.1637 26.2388 57.1637 25.579C57.1637 25.0461 56.9912 24.6046 56.641 24.2544C56.2958 23.9093 55.8543 23.625 55.3163 23.4119C54.7834 23.1987 54.0525 22.9551 53.1237 22.6912C51.86 22.3156 50.8246 21.9502 50.0227 21.5949C49.2208 21.2396 48.5356 20.7016 47.9621 19.9758C47.3937 19.2551 47.1044 18.3061 47.1044 17.1286C47.1044 16.0424 47.3937 15.0934 47.9723 14.2813C48.5508 13.4692 49.3731 12.8399 50.4338 12.3983C51.4946 11.9517 52.7177 11.7284 54.1084 11.7284C55.3214 11.7284 56.5192 11.906 57.7017 12.2613C58.8843 12.6166 59.94 13.0987 60.8687 13.7027L59.4273 16.8291C58.463 16.2404 57.4784 15.7887 56.4735 15.4639L56.4684 15.4689Z" fill="#04477B"/>
  <path d="M78.1605 30.7357L76.5009 26.782H67.3602L65.7005 30.7357H61.9854L70.1922 12.0228H73.9074L82.0076 30.7357H78.1605ZM68.6442 23.7063H75.2219L71.9584 15.8496L68.6442 23.7063Z" fill="#04477B"/>
  <path d="M84.2814 12.0228H97.1931L97.1677 15.1492H87.8646V20.1992H96.3404V23.3256H87.8646V30.7306H84.2814V12.0228Z" fill="#04477B"/>
  <path d="M99.8678 12.0228H113.581V15.1492H103.451V19.7729H112.541V22.8993H103.451V27.6042H113.901V30.7306H99.8678V12.0228Z" fill="#04477B"/>
  <path d="M117.535 12.0228H121.118V20.0165H130.447V12.0228H134.03V30.7357H130.447V23.1429H121.118V30.7357H117.535V12.0228Z" fill="#04477B"/>
  <path d="M138.654 12.0228H152.367V15.1492H142.237V19.7729H151.327V22.8993H142.237V27.6042H152.687V30.7306H138.654V12.0228Z" fill="#04477B"/>
  <path d="M168.03 30.7357L164.797 25.2035C164.655 25.2238 164.431 25.2289 164.127 25.2289H159.904V30.7357H156.321V12.0228H164.127C166.548 12.0228 168.421 12.5862 169.74 13.7078C171.06 14.8295 171.72 16.4181 171.72 18.4635C171.72 19.9252 171.405 21.1737 170.77 22.204C170.136 23.2394 169.217 24.0108 168.004 24.5285L172.121 30.7306H168.03V30.7357ZM159.904 22.0771H164.127C165.482 22.0771 166.517 21.7827 167.228 21.194C167.938 20.6053 168.299 19.7323 168.299 18.5751C168.299 17.4179 167.943 16.5805 167.228 16.007C166.517 15.4385 165.482 15.1492 164.127 15.1492H159.904V22.072V22.0771Z" fill="#04477B"/>
  <path d="M175.643 12.0228H179.226V30.7357H175.643V12.0228Z" fill="#04477B"/>
  <path d="M181.738 12.0228H197V15.2051H191.174V30.7357H187.565V15.2051H181.738V12.0228Z" fill="#04477B"/>
</svg>